<svg id="svg" version="1.1" xmlns="http://www.w3.org/2000/svg" xmlns:xlink="http://www.w3.org/1999/xlink" width="400" height="400" viewBox="0, 0, 400,400"><g id="svgg"><path id="path0" d="M112.000 94.046 C 106.253 94.459,100.976 95.121,97.600 95.852 C 96.170 96.162,94.460 96.519,93.800 96.646 C 86.645 98.016,72.691 103.474,65.400 107.755 C 45.189 119.621,31.620 133.912,20.350 155.200 C 19.929 155.995,17.605 161.183,17.214 162.200 C 17.045 162.640,16.708 163.450,16.464 164.000 C 14.837 167.674,11.772 178.703,10.851 184.200 C 10.630 185.520,10.224 187.950,9.949 189.600 C 9.343 193.238,9.378 210.408,10.001 214.800 C 10.983 221.730,11.333 223.646,12.480 228.400 C 14.854 238.239,18.990 248.788,23.277 255.941 C 24.115 257.338,24.800 258.559,24.800 258.654 C 24.800 259.128,30.741 267.589,33.638 271.241 C 37.991 276.727,45.063 283.803,50.000 287.612 C 50.990 288.375,51.890 289.090,52.000 289.200 C 55.268 292.468,69.271 300.650,76.600 303.574 C 77.040 303.749,77.940 304.121,78.600 304.400 C 81.349 305.562,85.339 306.980,87.600 307.600 C 88.590 307.871,89.850 308.237,90.400 308.413 C 90.950 308.589,92.030 308.856,92.800 309.007 C 93.570 309.159,94.920 309.446,95.800 309.646 C 98.076 310.163,101.746 310.822,105.000 311.297 C 106.833 311.564,146.049 311.757,218.500 311.856 L 329.200 312.007 329.200 292.004 L 329.200 272.000 266.600 272.000 C 198.379 272.000,202.704 272.148,204.829 269.883 C 208.520 265.948,216.680 251.753,219.651 244.100 C 219.843 243.605,220.171 242.795,220.379 242.300 C 220.588 241.805,221.152 240.140,221.632 238.600 C 222.112 237.060,222.641 235.440,222.807 235.000 C 223.092 234.245,223.504 232.752,224.381 229.300 C 224.999 226.866,225.757 222.953,226.415 218.800 C 226.944 215.466,227.802 197.503,227.474 196.648 C 227.246 196.055,222.797 196.000,175.213 196.000 L 123.200 196.000 123.200 213.600 L 123.200 231.200 149.832 231.200 L 176.464 231.200 176.181 232.487 C 176.025 233.195,175.760 234.050,175.591 234.387 C 175.422 234.724,174.682 236.260,173.946 237.800 C 167.766 250.736,157.929 259.991,144.800 265.223 C 142.656 266.078,141.483 266.437,138.200 267.248 C 127.296 269.942,115.186 270.279,106.600 268.127 C 105.280 267.796,103.750 267.439,103.200 267.333 C 102.650 267.227,101.795 266.973,101.300 266.770 C 100.805 266.566,99.995 266.238,99.500 266.041 C 95.271 264.353,92.878 263.176,89.253 261.000 C 81.891 256.582,74.789 249.743,69.698 242.169 C 66.875 237.969,65.154 234.690,62.785 229.000 C 58.063 217.652,56.823 199.573,59.974 188.000 C 61.363 182.899,61.618 182.112,63.029 178.600 C 68.825 164.174,80.416 151.468,93.800 144.872 C 98.723 142.445,99.687 142.052,102.800 141.200 C 103.790 140.929,105.050 140.562,105.600 140.384 C 106.573 140.069,109.037 139.628,114.433 138.803 C 117.800 138.288,122.217 138.289,125.567 138.807 C 127.015 139.030,129.460 139.404,131.000 139.637 C 144.811 141.728,157.826 149.262,164.796 159.200 C 165.336 159.970,165.922 160.780,166.097 161.000 C 166.715 161.774,169.600 166.430,169.600 166.652 C 169.600 166.775,169.972 167.399,170.427 168.038 L 171.254 169.200 196.381 169.200 C 220.472 169.200,221.515 169.170,221.700 168.462 C 222.122 166.847,215.511 152.253,211.525 146.000 C 209.647 143.054,205.624 137.193,205.210 136.800 C 205.095 136.690,204.375 135.790,203.612 134.800 C 194.854 123.446,180.227 111.794,166.209 105.003 C 160.169 102.077,157.270 100.800,156.668 100.800 C 156.389 100.800,155.989 100.649,155.780 100.463 C 154.510 99.338,139.988 95.761,133.000 94.853 C 122.855 93.533,120.436 93.440,112.000 94.046 M363.800 269.764 C 350.995 274.392,345.154 285.786,348.703 299.212 C 353.672 318.011,381.740 320.510,391.069 302.985 C 400.748 284.803,382.773 262.905,363.800 269.764 " stroke="none" fill="#040404" fill-rule="evenodd"></path><path id="path1" d="M0.000 200.000 L 0.000 400.000 200.000 400.000 L 400.000 400.000 400.000 200.000 L 400.000 0.000 200.000 0.000 L 0.000 0.000 0.000 200.000 M125.800 94.014 C 131.826 94.650,135.894 95.208,139.000 95.825 C 144.882 96.992,155.027 99.797,155.780 100.463 C 155.989 100.649,156.389 100.800,156.668 100.800 C 157.270 100.800,160.169 102.077,166.209 105.003 C 180.227 111.794,194.854 123.446,203.612 134.800 C 204.375 135.790,205.095 136.690,205.210 136.800 C 205.624 137.193,209.647 143.054,211.525 146.000 C 215.511 152.253,222.122 166.847,221.700 168.462 C 221.515 169.170,220.472 169.200,196.381 169.200 L 171.254 169.200 170.427 168.038 C 169.972 167.399,169.600 166.775,169.600 166.652 C 169.600 166.430,166.715 161.774,166.097 161.000 C 165.922 160.780,165.336 159.970,164.796 159.200 C 157.826 149.262,144.811 141.728,131.000 139.637 C 129.460 139.404,127.015 139.030,125.567 138.807 C 122.217 138.289,117.800 138.288,114.433 138.803 C 109.037 139.628,106.573 140.069,105.600 140.384 C 105.050 140.562,103.790 140.929,102.800 141.200 C 86.359 145.701,70.106 160.986,63.029 178.600 C 61.618 182.112,61.363 182.899,59.974 188.000 C 57.796 195.997,57.657 209.297,59.655 218.400 C 60.385 221.722,61.919 226.918,62.785 229.000 C 66.730 238.477,70.482 244.297,77.189 251.342 C 83.196 257.651,90.446 262.427,99.500 266.041 C 99.995 266.238,100.805 266.566,101.300 266.770 C 101.795 266.973,102.650 267.227,103.200 267.333 C 103.750 267.439,105.280 267.796,106.600 268.127 C 115.186 270.279,127.296 269.942,138.200 267.248 C 141.483 266.437,142.656 266.078,144.800 265.223 C 157.929 259.991,167.766 250.736,173.946 237.800 C 174.682 236.260,175.422 234.724,175.591 234.387 C 175.760 234.050,176.025 233.195,176.181 232.487 L 176.464 231.200 149.832 231.200 L 123.200 231.200 123.200 213.600 L 123.200 196.000 175.213 196.000 C 222.797 196.000,227.246 196.055,227.474 196.648 C 227.802 197.503,226.944 215.466,226.415 218.800 C 225.757 222.953,224.999 226.866,224.381 229.300 C 223.504 232.752,223.092 234.245,222.807 235.000 C 222.641 235.440,222.112 237.060,221.632 238.600 C 221.152 240.140,220.588 241.805,220.379 242.300 C 220.171 242.795,219.843 243.605,219.651 244.100 C 216.680 251.753,208.520 265.948,204.829 269.883 C 202.704 272.148,198.379 272.000,266.600 272.000 L 329.200 272.000 329.200 292.004 L 329.200 312.007 218.500 311.856 C 146.049 311.757,106.833 311.564,105.000 311.297 C 101.746 310.822,98.076 310.163,95.800 309.646 C 94.920 309.446,93.570 309.159,92.800 309.007 C 92.030 308.856,90.950 308.589,90.400 308.413 C 89.850 308.237,88.590 307.871,87.600 307.600 C 85.339 306.980,81.349 305.562,78.600 304.400 C 77.940 304.121,77.040 303.749,76.600 303.574 C 69.271 300.650,55.268 292.468,52.000 289.200 C 51.890 289.090,50.990 288.375,50.000 287.612 C 45.063 283.803,37.991 276.727,33.638 271.241 C 30.741 267.589,24.800 259.128,24.800 258.654 C 24.800 258.559,24.115 257.338,23.277 255.941 C 18.990 248.788,14.854 238.239,12.480 228.400 C 11.333 223.646,10.983 221.730,10.001 214.800 C 9.378 210.408,9.343 193.238,9.949 189.600 C 10.224 187.950,10.630 185.520,10.851 184.200 C 11.262 181.749,11.776 179.296,12.401 176.800 C 12.935 174.670,15.962 165.134,16.464 164.000 C 16.708 163.450,17.045 162.640,17.214 162.200 C 17.605 161.183,19.929 155.995,20.350 155.200 C 31.620 133.912,45.189 119.621,65.400 107.755 C 72.691 103.474,86.645 98.016,93.800 96.646 C 94.460 96.519,96.170 96.162,97.600 95.852 C 105.520 94.136,118.770 93.273,125.800 94.014 M377.234 269.639 C 402.733 277.971,397.305 315.044,370.600 314.950 C 353.077 314.889,342.369 297.041,350.224 280.987 C 354.708 271.821,367.485 266.453,377.234 269.639 " stroke="none" fill="#fbfbfb" fill-rule="evenodd"></path></g></svg>